<mxfile host="app.diagrams.net" modified="2020-08-11T08:26:28.463Z" agent="5.0 (Windows NT 10.0; Win64; x64) AppleWebKit/537.36 (KHTML, like Gecko) Chrome/84.0.4147.105 Safari/537.36" etag="mhRthgNINPeksKb73Hh_" version="13.6.2" type="github" pages="2">
  <diagram id="C5RBs43oDa-KdzZeNtuy" name="基本方針">
    <mxGraphModel dx="1038" dy="580" grid="1" gridSize="10" guides="1" tooltips="1" connect="1" arrows="1" fold="1" page="1" pageScale="1" pageWidth="827" pageHeight="1169" math="0" shadow="0">
      <root>
        <mxCell id="WIyWlLk6GJQsqaUBKTNV-0" />
        <mxCell id="WIyWlLk6GJQsqaUBKTNV-1" parent="WIyWlLk6GJQsqaUBKTNV-0" />
        <mxCell id="I-1jDxcsXlqz81qqnX_N-0" value="«interface»&lt;br&gt;&lt;b&gt;IGaterPlugin&lt;/b&gt;" style="html=1;" vertex="1" parent="WIyWlLk6GJQsqaUBKTNV-1">
          <mxGeometry x="440" y="40" width="110" height="50" as="geometry" />
        </mxCell>
        <mxCell id="I-1jDxcsXlqz81qqnX_N-6" value="«interface»&lt;br&gt;&lt;b&gt;IGaterPluginPageDataAccess&lt;br&gt;&lt;/b&gt;" style="html=1;" vertex="1" parent="WIyWlLk6GJQsqaUBKTNV-1">
          <mxGeometry x="260" y="138" width="190" height="50" as="geometry" />
        </mxCell>
        <mxCell id="I-1jDxcsXlqz81qqnX_N-8" value="" style="endArrow=block;endSize=16;endFill=0;html=1;exitX=0.5;exitY=1;exitDx=0;exitDy=0;edgeStyle=orthogonalEdgeStyle;entryX=1;entryY=0.5;entryDx=0;entryDy=0;" edge="1" parent="WIyWlLk6GJQsqaUBKTNV-1" source="I-1jDxcsXlqz81qqnX_N-0" target="I-1jDxcsXlqz81qqnX_N-6">
          <mxGeometry width="160" relative="1" as="geometry">
            <mxPoint x="140" y="220" as="sourcePoint" />
            <mxPoint x="560" y="270" as="targetPoint" />
          </mxGeometry>
        </mxCell>
        <mxCell id="I-1jDxcsXlqz81qqnX_N-9" value="" style="endArrow=diamondThin;endFill=1;endSize=24;html=1;exitX=0;exitY=0.5;exitDx=0;exitDy=0;entryX=1;entryY=0.5;entryDx=0;entryDy=0;" edge="1" parent="WIyWlLk6GJQsqaUBKTNV-1" source="I-1jDxcsXlqz81qqnX_N-6" target="I-1jDxcsXlqz81qqnX_N-3">
          <mxGeometry width="160" relative="1" as="geometry">
            <mxPoint x="220" y="278" as="sourcePoint" />
            <mxPoint x="210" y="200" as="targetPoint" />
          </mxGeometry>
        </mxCell>
        <mxCell id="I-1jDxcsXlqz81qqnX_N-10" value="«interface»&lt;br&gt;&lt;b&gt;IGaterPluginLayout&lt;br&gt;&lt;/b&gt;" style="html=1;" vertex="1" parent="WIyWlLk6GJQsqaUBKTNV-1">
          <mxGeometry x="260" y="220" width="190" height="50" as="geometry" />
        </mxCell>
        <mxCell id="I-1jDxcsXlqz81qqnX_N-11" value="" style="endArrow=block;endSize=16;endFill=0;html=1;exitX=0.5;exitY=1;exitDx=0;exitDy=0;edgeStyle=orthogonalEdgeStyle;entryX=1;entryY=0.5;entryDx=0;entryDy=0;" edge="1" parent="WIyWlLk6GJQsqaUBKTNV-1" source="I-1jDxcsXlqz81qqnX_N-0" target="I-1jDxcsXlqz81qqnX_N-10">
          <mxGeometry width="160" relative="1" as="geometry">
            <mxPoint x="436" y="173" as="sourcePoint" />
            <mxPoint x="580" y="270" as="targetPoint" />
          </mxGeometry>
        </mxCell>
        <mxCell id="I-1jDxcsXlqz81qqnX_N-16" value="" style="endArrow=diamondThin;endFill=1;endSize=24;html=1;exitX=0;exitY=0.5;exitDx=0;exitDy=0;entryX=1;entryY=0.5;entryDx=0;entryDy=0;" edge="1" parent="WIyWlLk6GJQsqaUBKTNV-1" source="I-1jDxcsXlqz81qqnX_N-10" target="I-1jDxcsXlqz81qqnX_N-13">
          <mxGeometry width="160" relative="1" as="geometry">
            <mxPoint x="190" y="169" as="sourcePoint" />
            <mxPoint x="230" y="310" as="targetPoint" />
          </mxGeometry>
        </mxCell>
        <mxCell id="I-1jDxcsXlqz81qqnX_N-17" value="«interface»&lt;br&gt;&lt;b&gt;IGaterPluginConfigAccess&lt;br&gt;&lt;/b&gt;" style="html=1;" vertex="1" parent="WIyWlLk6GJQsqaUBKTNV-1">
          <mxGeometry x="260" y="316" width="190" height="50" as="geometry" />
        </mxCell>
        <mxCell id="I-1jDxcsXlqz81qqnX_N-22" value="" style="endArrow=diamondThin;endFill=1;endSize=24;html=1;exitX=0;exitY=0.5;exitDx=0;exitDy=0;entryX=1;entryY=0.5;entryDx=0;entryDy=0;" edge="1" parent="WIyWlLk6GJQsqaUBKTNV-1" source="I-1jDxcsXlqz81qqnX_N-17" target="I-1jDxcsXlqz81qqnX_N-19">
          <mxGeometry width="160" relative="1" as="geometry">
            <mxPoint x="200" y="279" as="sourcePoint" />
            <mxPoint x="250" y="400" as="targetPoint" />
          </mxGeometry>
        </mxCell>
        <mxCell id="I-1jDxcsXlqz81qqnX_N-23" value="" style="endArrow=block;endSize=16;endFill=0;html=1;entryX=1;entryY=0.5;entryDx=0;entryDy=0;exitX=0.5;exitY=1;exitDx=0;exitDy=0;edgeStyle=orthogonalEdgeStyle;" edge="1" parent="WIyWlLk6GJQsqaUBKTNV-1" source="I-1jDxcsXlqz81qqnX_N-0" target="I-1jDxcsXlqz81qqnX_N-17">
          <mxGeometry width="160" relative="1" as="geometry">
            <mxPoint x="610" y="290" as="sourcePoint" />
            <mxPoint x="590" y="290" as="targetPoint" />
          </mxGeometry>
        </mxCell>
        <mxCell id="I-1jDxcsXlqz81qqnX_N-2" value="GaterPageDataAccess" style="swimlane;fontStyle=1;align=center;verticalAlign=top;childLayout=stackLayout;horizontal=1;startSize=26;horizontalStack=0;resizeParent=1;resizeParentMax=0;resizeLast=0;collapsible=1;marginBottom=0;" vertex="1" parent="WIyWlLk6GJQsqaUBKTNV-1">
          <mxGeometry x="20" y="120" width="160" height="86" as="geometry" />
        </mxCell>
        <mxCell id="I-1jDxcsXlqz81qqnX_N-3" value="+ field: type" style="text;strokeColor=none;fillColor=none;align=left;verticalAlign=top;spacingLeft=4;spacingRight=4;overflow=hidden;rotatable=0;points=[[0,0.5],[1,0.5]];portConstraint=eastwest;" vertex="1" parent="I-1jDxcsXlqz81qqnX_N-2">
          <mxGeometry y="26" width="160" height="26" as="geometry" />
        </mxCell>
        <mxCell id="I-1jDxcsXlqz81qqnX_N-4" value="" style="line;strokeWidth=1;fillColor=none;align=left;verticalAlign=middle;spacingTop=-1;spacingLeft=3;spacingRight=3;rotatable=0;labelPosition=right;points=[];portConstraint=eastwest;" vertex="1" parent="I-1jDxcsXlqz81qqnX_N-2">
          <mxGeometry y="52" width="160" height="8" as="geometry" />
        </mxCell>
        <mxCell id="I-1jDxcsXlqz81qqnX_N-5" value="+ method(type): type" style="text;strokeColor=none;fillColor=none;align=left;verticalAlign=top;spacingLeft=4;spacingRight=4;overflow=hidden;rotatable=0;points=[[0,0.5],[1,0.5]];portConstraint=eastwest;" vertex="1" parent="I-1jDxcsXlqz81qqnX_N-2">
          <mxGeometry y="60" width="160" height="26" as="geometry" />
        </mxCell>
        <mxCell id="I-1jDxcsXlqz81qqnX_N-12" value="GaterLayout" style="swimlane;fontStyle=1;align=center;verticalAlign=top;childLayout=stackLayout;horizontal=1;startSize=26;horizontalStack=0;resizeParent=1;resizeParentMax=0;resizeLast=0;collapsible=1;marginBottom=0;" vertex="1" parent="WIyWlLk6GJQsqaUBKTNV-1">
          <mxGeometry x="30" y="230" width="160" height="86" as="geometry" />
        </mxCell>
        <mxCell id="I-1jDxcsXlqz81qqnX_N-13" value="+ field: type" style="text;strokeColor=none;fillColor=none;align=left;verticalAlign=top;spacingLeft=4;spacingRight=4;overflow=hidden;rotatable=0;points=[[0,0.5],[1,0.5]];portConstraint=eastwest;" vertex="1" parent="I-1jDxcsXlqz81qqnX_N-12">
          <mxGeometry y="26" width="160" height="26" as="geometry" />
        </mxCell>
        <mxCell id="I-1jDxcsXlqz81qqnX_N-14" value="" style="line;strokeWidth=1;fillColor=none;align=left;verticalAlign=middle;spacingTop=-1;spacingLeft=3;spacingRight=3;rotatable=0;labelPosition=right;points=[];portConstraint=eastwest;" vertex="1" parent="I-1jDxcsXlqz81qqnX_N-12">
          <mxGeometry y="52" width="160" height="8" as="geometry" />
        </mxCell>
        <mxCell id="I-1jDxcsXlqz81qqnX_N-15" value="+ method(type): type" style="text;strokeColor=none;fillColor=none;align=left;verticalAlign=top;spacingLeft=4;spacingRight=4;overflow=hidden;rotatable=0;points=[[0,0.5],[1,0.5]];portConstraint=eastwest;" vertex="1" parent="I-1jDxcsXlqz81qqnX_N-12">
          <mxGeometry y="60" width="160" height="26" as="geometry" />
        </mxCell>
        <mxCell id="I-1jDxcsXlqz81qqnX_N-18" value="GaterConfigAccess" style="swimlane;fontStyle=1;align=center;verticalAlign=top;childLayout=stackLayout;horizontal=1;startSize=26;horizontalStack=0;resizeParent=1;resizeParentMax=0;resizeLast=0;collapsible=1;marginBottom=0;" vertex="1" parent="WIyWlLk6GJQsqaUBKTNV-1">
          <mxGeometry x="20" y="340" width="160" height="86" as="geometry" />
        </mxCell>
        <mxCell id="I-1jDxcsXlqz81qqnX_N-19" value="+ field: type" style="text;strokeColor=none;fillColor=none;align=left;verticalAlign=top;spacingLeft=4;spacingRight=4;overflow=hidden;rotatable=0;points=[[0,0.5],[1,0.5]];portConstraint=eastwest;" vertex="1" parent="I-1jDxcsXlqz81qqnX_N-18">
          <mxGeometry y="26" width="160" height="26" as="geometry" />
        </mxCell>
        <mxCell id="I-1jDxcsXlqz81qqnX_N-20" value="" style="line;strokeWidth=1;fillColor=none;align=left;verticalAlign=middle;spacingTop=-1;spacingLeft=3;spacingRight=3;rotatable=0;labelPosition=right;points=[];portConstraint=eastwest;" vertex="1" parent="I-1jDxcsXlqz81qqnX_N-18">
          <mxGeometry y="52" width="160" height="8" as="geometry" />
        </mxCell>
        <mxCell id="I-1jDxcsXlqz81qqnX_N-21" value="+ method(type): type" style="text;strokeColor=none;fillColor=none;align=left;verticalAlign=top;spacingLeft=4;spacingRight=4;overflow=hidden;rotatable=0;points=[[0,0.5],[1,0.5]];portConstraint=eastwest;" vertex="1" parent="I-1jDxcsXlqz81qqnX_N-18">
          <mxGeometry y="60" width="160" height="26" as="geometry" />
        </mxCell>
        <mxCell id="I-1jDxcsXlqz81qqnX_N-24" value="SalesManagemant" style="swimlane;fontStyle=1;align=center;verticalAlign=top;childLayout=stackLayout;horizontal=1;startSize=26;horizontalStack=0;resizeParent=1;resizeParentMax=0;resizeLast=0;collapsible=1;marginBottom=0;" vertex="1" parent="WIyWlLk6GJQsqaUBKTNV-1">
          <mxGeometry x="630" y="134" width="160" height="86" as="geometry" />
        </mxCell>
        <mxCell id="I-1jDxcsXlqz81qqnX_N-25" value="+ field: type" style="text;strokeColor=none;fillColor=none;align=left;verticalAlign=top;spacingLeft=4;spacingRight=4;overflow=hidden;rotatable=0;points=[[0,0.5],[1,0.5]];portConstraint=eastwest;" vertex="1" parent="I-1jDxcsXlqz81qqnX_N-24">
          <mxGeometry y="26" width="160" height="26" as="geometry" />
        </mxCell>
        <mxCell id="I-1jDxcsXlqz81qqnX_N-26" value="" style="line;strokeWidth=1;fillColor=none;align=left;verticalAlign=middle;spacingTop=-1;spacingLeft=3;spacingRight=3;rotatable=0;labelPosition=right;points=[];portConstraint=eastwest;" vertex="1" parent="I-1jDxcsXlqz81qqnX_N-24">
          <mxGeometry y="52" width="160" height="8" as="geometry" />
        </mxCell>
        <mxCell id="I-1jDxcsXlqz81qqnX_N-27" value="+ method(type): type" style="text;strokeColor=none;fillColor=none;align=left;verticalAlign=top;spacingLeft=4;spacingRight=4;overflow=hidden;rotatable=0;points=[[0,0.5],[1,0.5]];portConstraint=eastwest;" vertex="1" parent="I-1jDxcsXlqz81qqnX_N-24">
          <mxGeometry y="60" width="160" height="26" as="geometry" />
        </mxCell>
        <mxCell id="I-1jDxcsXlqz81qqnX_N-28" value="" style="endArrow=block;endSize=16;endFill=0;html=1;entryX=1;entryY=0.5;entryDx=0;entryDy=0;edgeStyle=orthogonalEdgeStyle;" edge="1" parent="WIyWlLk6GJQsqaUBKTNV-1" source="I-1jDxcsXlqz81qqnX_N-25" target="I-1jDxcsXlqz81qqnX_N-0">
          <mxGeometry width="160" relative="1" as="geometry">
            <mxPoint x="436" y="351" as="sourcePoint" />
            <mxPoint x="505" y="100" as="targetPoint" />
          </mxGeometry>
        </mxCell>
        <mxCell id="I-1jDxcsXlqz81qqnX_N-29" value="CoustomerManagemant" style="swimlane;fontStyle=1;align=center;verticalAlign=top;childLayout=stackLayout;horizontal=1;startSize=26;horizontalStack=0;resizeParent=1;resizeParentMax=0;resizeLast=0;collapsible=1;marginBottom=0;" vertex="1" parent="WIyWlLk6GJQsqaUBKTNV-1">
          <mxGeometry x="630" y="260" width="160" height="86" as="geometry" />
        </mxCell>
        <mxCell id="I-1jDxcsXlqz81qqnX_N-30" value="+ field: type" style="text;strokeColor=none;fillColor=none;align=left;verticalAlign=top;spacingLeft=4;spacingRight=4;overflow=hidden;rotatable=0;points=[[0,0.5],[1,0.5]];portConstraint=eastwest;" vertex="1" parent="I-1jDxcsXlqz81qqnX_N-29">
          <mxGeometry y="26" width="160" height="26" as="geometry" />
        </mxCell>
        <mxCell id="I-1jDxcsXlqz81qqnX_N-31" value="" style="line;strokeWidth=1;fillColor=none;align=left;verticalAlign=middle;spacingTop=-1;spacingLeft=3;spacingRight=3;rotatable=0;labelPosition=right;points=[];portConstraint=eastwest;" vertex="1" parent="I-1jDxcsXlqz81qqnX_N-29">
          <mxGeometry y="52" width="160" height="8" as="geometry" />
        </mxCell>
        <mxCell id="I-1jDxcsXlqz81qqnX_N-32" value="+ method(type): type" style="text;strokeColor=none;fillColor=none;align=left;verticalAlign=top;spacingLeft=4;spacingRight=4;overflow=hidden;rotatable=0;points=[[0,0.5],[1,0.5]];portConstraint=eastwest;" vertex="1" parent="I-1jDxcsXlqz81qqnX_N-29">
          <mxGeometry y="60" width="160" height="26" as="geometry" />
        </mxCell>
        <mxCell id="I-1jDxcsXlqz81qqnX_N-33" value="" style="endArrow=block;endSize=16;endFill=0;html=1;entryX=1;entryY=0.5;entryDx=0;entryDy=0;edgeStyle=orthogonalEdgeStyle;exitX=0;exitY=0.5;exitDx=0;exitDy=0;" edge="1" parent="WIyWlLk6GJQsqaUBKTNV-1" source="I-1jDxcsXlqz81qqnX_N-30" target="I-1jDxcsXlqz81qqnX_N-0">
          <mxGeometry width="160" relative="1" as="geometry">
            <mxPoint x="640" y="183" as="sourcePoint" />
            <mxPoint x="560" y="75" as="targetPoint" />
          </mxGeometry>
        </mxCell>
        <mxCell id="I-1jDxcsXlqz81qqnX_N-34" value="各インターフェースだけを改修する際に、&lt;br&gt;IGaterPluginも修正しないといけない。&lt;br&gt;世代管理が煩雑になる" style="html=1;labelPosition=center;verticalLabelPosition=middle;align=center;verticalAlign=middle;" vertex="1" parent="WIyWlLk6GJQsqaUBKTNV-1">
          <mxGeometry x="390" y="460" width="310" height="60" as="geometry" />
        </mxCell>
      </root>
    </mxGraphModel>
  </diagram>
  <diagram id="72q5lkg6P-13b_-hOZsK" name="Page-2">
    <mxGraphModel dx="1038" dy="580" grid="1" gridSize="10" guides="1" tooltips="1" connect="1" arrows="1" fold="1" page="1" pageScale="1" pageWidth="827" pageHeight="1169" math="0" shadow="0">
      <root>
        <mxCell id="kZ2FG0ebcxlFSq9pCnh2-0" />
        <mxCell id="kZ2FG0ebcxlFSq9pCnh2-1" parent="kZ2FG0ebcxlFSq9pCnh2-0" />
        <mxCell id="kZ2FG0ebcxlFSq9pCnh2-2" value="«interface»&lt;br&gt;&lt;b&gt;IGaterPlugin[ver1.0]&lt;/b&gt;" style="html=1;" vertex="1" parent="kZ2FG0ebcxlFSq9pCnh2-1">
          <mxGeometry x="370" y="40" width="135" height="50" as="geometry" />
        </mxCell>
        <mxCell id="kZ2FG0ebcxlFSq9pCnh2-3" value="«interface»&lt;br&gt;&lt;b&gt;IGaterPluginPageDataAccess&lt;br&gt;&lt;/b&gt;" style="html=1;" vertex="1" parent="kZ2FG0ebcxlFSq9pCnh2-1">
          <mxGeometry x="220" y="138" width="190" height="50" as="geometry" />
        </mxCell>
        <mxCell id="kZ2FG0ebcxlFSq9pCnh2-4" value="" style="endArrow=block;endSize=16;endFill=0;html=1;exitX=0.5;exitY=1;exitDx=0;exitDy=0;edgeStyle=orthogonalEdgeStyle;entryX=1;entryY=0.5;entryDx=0;entryDy=0;" edge="1" parent="kZ2FG0ebcxlFSq9pCnh2-1" source="kZ2FG0ebcxlFSq9pCnh2-2" target="kZ2FG0ebcxlFSq9pCnh2-3">
          <mxGeometry width="160" relative="1" as="geometry">
            <mxPoint x="100" y="220" as="sourcePoint" />
            <mxPoint x="520" y="270" as="targetPoint" />
          </mxGeometry>
        </mxCell>
        <mxCell id="kZ2FG0ebcxlFSq9pCnh2-5" value="" style="endArrow=diamondThin;endFill=1;endSize=24;html=1;exitX=0;exitY=0.5;exitDx=0;exitDy=0;entryX=1;entryY=0.5;entryDx=0;entryDy=0;" edge="1" parent="kZ2FG0ebcxlFSq9pCnh2-1" source="kZ2FG0ebcxlFSq9pCnh2-3" target="kZ2FG0ebcxlFSq9pCnh2-13">
          <mxGeometry width="160" relative="1" as="geometry">
            <mxPoint x="220" y="278" as="sourcePoint" />
            <mxPoint x="210" y="200" as="targetPoint" />
          </mxGeometry>
        </mxCell>
        <mxCell id="kZ2FG0ebcxlFSq9pCnh2-6" value="«interface»&lt;br&gt;&lt;b&gt;IGaterPluginLayout&lt;br&gt;&lt;/b&gt;" style="html=1;" vertex="1" parent="kZ2FG0ebcxlFSq9pCnh2-1">
          <mxGeometry x="220" y="220" width="190" height="50" as="geometry" />
        </mxCell>
        <mxCell id="kZ2FG0ebcxlFSq9pCnh2-7" value="" style="endArrow=block;endSize=16;endFill=0;html=1;exitX=0.5;exitY=1;exitDx=0;exitDy=0;edgeStyle=orthogonalEdgeStyle;entryX=1;entryY=0.5;entryDx=0;entryDy=0;" edge="1" parent="kZ2FG0ebcxlFSq9pCnh2-1" source="kZ2FG0ebcxlFSq9pCnh2-2" target="kZ2FG0ebcxlFSq9pCnh2-6">
          <mxGeometry width="160" relative="1" as="geometry">
            <mxPoint x="396" y="173" as="sourcePoint" />
            <mxPoint x="540" y="270" as="targetPoint" />
          </mxGeometry>
        </mxCell>
        <mxCell id="kZ2FG0ebcxlFSq9pCnh2-8" value="" style="endArrow=diamondThin;endFill=1;endSize=24;html=1;exitX=0;exitY=0.5;exitDx=0;exitDy=0;entryX=1;entryY=0.5;entryDx=0;entryDy=0;" edge="1" parent="kZ2FG0ebcxlFSq9pCnh2-1" source="kZ2FG0ebcxlFSq9pCnh2-6" target="kZ2FG0ebcxlFSq9pCnh2-17">
          <mxGeometry width="160" relative="1" as="geometry">
            <mxPoint x="190" y="169" as="sourcePoint" />
            <mxPoint x="230" y="310" as="targetPoint" />
          </mxGeometry>
        </mxCell>
        <mxCell id="kZ2FG0ebcxlFSq9pCnh2-9" value="«interface»&lt;br&gt;&lt;b&gt;IGaterPluginConfigAccess&lt;br&gt;&lt;/b&gt;" style="html=1;" vertex="1" parent="kZ2FG0ebcxlFSq9pCnh2-1">
          <mxGeometry x="220" y="316" width="190" height="50" as="geometry" />
        </mxCell>
        <mxCell id="kZ2FG0ebcxlFSq9pCnh2-10" value="" style="endArrow=diamondThin;endFill=1;endSize=24;html=1;exitX=0;exitY=0.5;exitDx=0;exitDy=0;entryX=1;entryY=0.5;entryDx=0;entryDy=0;" edge="1" parent="kZ2FG0ebcxlFSq9pCnh2-1" source="kZ2FG0ebcxlFSq9pCnh2-9" target="kZ2FG0ebcxlFSq9pCnh2-21">
          <mxGeometry width="160" relative="1" as="geometry">
            <mxPoint x="200" y="279" as="sourcePoint" />
            <mxPoint x="250" y="400" as="targetPoint" />
          </mxGeometry>
        </mxCell>
        <mxCell id="kZ2FG0ebcxlFSq9pCnh2-11" value="" style="endArrow=block;endSize=16;endFill=0;html=1;entryX=1;entryY=0.5;entryDx=0;entryDy=0;exitX=0.5;exitY=1;exitDx=0;exitDy=0;edgeStyle=orthogonalEdgeStyle;" edge="1" parent="kZ2FG0ebcxlFSq9pCnh2-1" source="kZ2FG0ebcxlFSq9pCnh2-2" target="kZ2FG0ebcxlFSq9pCnh2-9">
          <mxGeometry width="160" relative="1" as="geometry">
            <mxPoint x="570" y="290" as="sourcePoint" />
            <mxPoint x="550" y="290" as="targetPoint" />
          </mxGeometry>
        </mxCell>
        <mxCell id="kZ2FG0ebcxlFSq9pCnh2-12" value="GaterPageDataAccess" style="swimlane;fontStyle=1;align=center;verticalAlign=top;childLayout=stackLayout;horizontal=1;startSize=26;horizontalStack=0;resizeParent=1;resizeParentMax=0;resizeLast=0;collapsible=1;marginBottom=0;" vertex="1" parent="kZ2FG0ebcxlFSq9pCnh2-1">
          <mxGeometry x="20" y="120" width="160" height="86" as="geometry" />
        </mxCell>
        <mxCell id="kZ2FG0ebcxlFSq9pCnh2-13" value="+ field: type" style="text;strokeColor=none;fillColor=none;align=left;verticalAlign=top;spacingLeft=4;spacingRight=4;overflow=hidden;rotatable=0;points=[[0,0.5],[1,0.5]];portConstraint=eastwest;" vertex="1" parent="kZ2FG0ebcxlFSq9pCnh2-12">
          <mxGeometry y="26" width="160" height="26" as="geometry" />
        </mxCell>
        <mxCell id="kZ2FG0ebcxlFSq9pCnh2-14" value="" style="line;strokeWidth=1;fillColor=none;align=left;verticalAlign=middle;spacingTop=-1;spacingLeft=3;spacingRight=3;rotatable=0;labelPosition=right;points=[];portConstraint=eastwest;" vertex="1" parent="kZ2FG0ebcxlFSq9pCnh2-12">
          <mxGeometry y="52" width="160" height="8" as="geometry" />
        </mxCell>
        <mxCell id="kZ2FG0ebcxlFSq9pCnh2-15" value="+ method(type): type" style="text;strokeColor=none;fillColor=none;align=left;verticalAlign=top;spacingLeft=4;spacingRight=4;overflow=hidden;rotatable=0;points=[[0,0.5],[1,0.5]];portConstraint=eastwest;" vertex="1" parent="kZ2FG0ebcxlFSq9pCnh2-12">
          <mxGeometry y="60" width="160" height="26" as="geometry" />
        </mxCell>
        <mxCell id="kZ2FG0ebcxlFSq9pCnh2-16" value="GaterLayout" style="swimlane;fontStyle=1;align=center;verticalAlign=top;childLayout=stackLayout;horizontal=1;startSize=26;horizontalStack=0;resizeParent=1;resizeParentMax=0;resizeLast=0;collapsible=1;marginBottom=0;" vertex="1" parent="kZ2FG0ebcxlFSq9pCnh2-1">
          <mxGeometry x="30" y="230" width="160" height="86" as="geometry" />
        </mxCell>
        <mxCell id="kZ2FG0ebcxlFSq9pCnh2-17" value="+ field: type" style="text;strokeColor=none;fillColor=none;align=left;verticalAlign=top;spacingLeft=4;spacingRight=4;overflow=hidden;rotatable=0;points=[[0,0.5],[1,0.5]];portConstraint=eastwest;" vertex="1" parent="kZ2FG0ebcxlFSq9pCnh2-16">
          <mxGeometry y="26" width="160" height="26" as="geometry" />
        </mxCell>
        <mxCell id="kZ2FG0ebcxlFSq9pCnh2-18" value="" style="line;strokeWidth=1;fillColor=none;align=left;verticalAlign=middle;spacingTop=-1;spacingLeft=3;spacingRight=3;rotatable=0;labelPosition=right;points=[];portConstraint=eastwest;" vertex="1" parent="kZ2FG0ebcxlFSq9pCnh2-16">
          <mxGeometry y="52" width="160" height="8" as="geometry" />
        </mxCell>
        <mxCell id="kZ2FG0ebcxlFSq9pCnh2-19" value="+ method(type): type" style="text;strokeColor=none;fillColor=none;align=left;verticalAlign=top;spacingLeft=4;spacingRight=4;overflow=hidden;rotatable=0;points=[[0,0.5],[1,0.5]];portConstraint=eastwest;" vertex="1" parent="kZ2FG0ebcxlFSq9pCnh2-16">
          <mxGeometry y="60" width="160" height="26" as="geometry" />
        </mxCell>
        <mxCell id="kZ2FG0ebcxlFSq9pCnh2-20" value="GaterConfigAccess" style="swimlane;fontStyle=1;align=center;verticalAlign=top;childLayout=stackLayout;horizontal=1;startSize=26;horizontalStack=0;resizeParent=1;resizeParentMax=0;resizeLast=0;collapsible=1;marginBottom=0;" vertex="1" parent="kZ2FG0ebcxlFSq9pCnh2-1">
          <mxGeometry x="20" y="340" width="160" height="86" as="geometry" />
        </mxCell>
        <mxCell id="kZ2FG0ebcxlFSq9pCnh2-21" value="+ field: type" style="text;strokeColor=none;fillColor=none;align=left;verticalAlign=top;spacingLeft=4;spacingRight=4;overflow=hidden;rotatable=0;points=[[0,0.5],[1,0.5]];portConstraint=eastwest;" vertex="1" parent="kZ2FG0ebcxlFSq9pCnh2-20">
          <mxGeometry y="26" width="160" height="26" as="geometry" />
        </mxCell>
        <mxCell id="kZ2FG0ebcxlFSq9pCnh2-22" value="" style="line;strokeWidth=1;fillColor=none;align=left;verticalAlign=middle;spacingTop=-1;spacingLeft=3;spacingRight=3;rotatable=0;labelPosition=right;points=[];portConstraint=eastwest;" vertex="1" parent="kZ2FG0ebcxlFSq9pCnh2-20">
          <mxGeometry y="52" width="160" height="8" as="geometry" />
        </mxCell>
        <mxCell id="kZ2FG0ebcxlFSq9pCnh2-23" value="+ method(type): type" style="text;strokeColor=none;fillColor=none;align=left;verticalAlign=top;spacingLeft=4;spacingRight=4;overflow=hidden;rotatable=0;points=[[0,0.5],[1,0.5]];portConstraint=eastwest;" vertex="1" parent="kZ2FG0ebcxlFSq9pCnh2-20">
          <mxGeometry y="60" width="160" height="26" as="geometry" />
        </mxCell>
        <mxCell id="kZ2FG0ebcxlFSq9pCnh2-28" value="" style="endArrow=block;endSize=16;endFill=0;html=1;edgeStyle=orthogonalEdgeStyle;entryX=0.5;entryY=1;entryDx=0;entryDy=0;" edge="1" parent="kZ2FG0ebcxlFSq9pCnh2-1" source="kZ2FG0ebcxlFSq9pCnh2-25" target="kZ2FG0ebcxlFSq9pCnh2-35">
          <mxGeometry width="160" relative="1" as="geometry">
            <mxPoint x="436" y="351" as="sourcePoint" />
            <mxPoint x="620" y="110" as="targetPoint" />
          </mxGeometry>
        </mxCell>
        <mxCell id="kZ2FG0ebcxlFSq9pCnh2-33" value="" style="endArrow=block;endSize=16;endFill=0;html=1;edgeStyle=orthogonalEdgeStyle;exitX=0;exitY=0.5;exitDx=0;exitDy=0;entryX=0.5;entryY=1;entryDx=0;entryDy=0;" edge="1" parent="kZ2FG0ebcxlFSq9pCnh2-1" source="kZ2FG0ebcxlFSq9pCnh2-30" target="kZ2FG0ebcxlFSq9pCnh2-35">
          <mxGeometry width="160" relative="1" as="geometry">
            <mxPoint x="640" y="183" as="sourcePoint" />
            <mxPoint x="550" y="110" as="targetPoint" />
          </mxGeometry>
        </mxCell>
        <mxCell id="kZ2FG0ebcxlFSq9pCnh2-35" value="GaterPluginCompositor" style="swimlane;fontStyle=1;align=center;verticalAlign=top;childLayout=stackLayout;horizontal=1;startSize=26;horizontalStack=0;resizeParent=1;resizeParentMax=0;resizeLast=0;collapsible=1;marginBottom=0;" vertex="1" parent="kZ2FG0ebcxlFSq9pCnh2-1">
          <mxGeometry x="540" y="48" width="160" height="34" as="geometry" />
        </mxCell>
        <mxCell id="kZ2FG0ebcxlFSq9pCnh2-37" value="" style="line;strokeWidth=1;fillColor=none;align=left;verticalAlign=middle;spacingTop=-1;spacingLeft=3;spacingRight=3;rotatable=0;labelPosition=right;points=[];portConstraint=eastwest;" vertex="1" parent="kZ2FG0ebcxlFSq9pCnh2-35">
          <mxGeometry y="26" width="160" height="8" as="geometry" />
        </mxCell>
        <mxCell id="kZ2FG0ebcxlFSq9pCnh2-24" value="SalesManagemant" style="swimlane;fontStyle=1;align=center;verticalAlign=top;childLayout=stackLayout;horizontal=1;startSize=26;horizontalStack=0;resizeParent=1;resizeParentMax=0;resizeLast=0;collapsible=1;marginBottom=0;" vertex="1" parent="kZ2FG0ebcxlFSq9pCnh2-1">
          <mxGeometry x="650" y="128" width="160" height="86" as="geometry" />
        </mxCell>
        <mxCell id="kZ2FG0ebcxlFSq9pCnh2-25" value="+ field: type" style="text;strokeColor=none;fillColor=none;align=left;verticalAlign=top;spacingLeft=4;spacingRight=4;overflow=hidden;rotatable=0;points=[[0,0.5],[1,0.5]];portConstraint=eastwest;" vertex="1" parent="kZ2FG0ebcxlFSq9pCnh2-24">
          <mxGeometry y="26" width="160" height="26" as="geometry" />
        </mxCell>
        <mxCell id="kZ2FG0ebcxlFSq9pCnh2-26" value="" style="line;strokeWidth=1;fillColor=none;align=left;verticalAlign=middle;spacingTop=-1;spacingLeft=3;spacingRight=3;rotatable=0;labelPosition=right;points=[];portConstraint=eastwest;" vertex="1" parent="kZ2FG0ebcxlFSq9pCnh2-24">
          <mxGeometry y="52" width="160" height="8" as="geometry" />
        </mxCell>
        <mxCell id="kZ2FG0ebcxlFSq9pCnh2-27" value="+ method(type): type" style="text;strokeColor=none;fillColor=none;align=left;verticalAlign=top;spacingLeft=4;spacingRight=4;overflow=hidden;rotatable=0;points=[[0,0.5],[1,0.5]];portConstraint=eastwest;" vertex="1" parent="kZ2FG0ebcxlFSq9pCnh2-24">
          <mxGeometry y="60" width="160" height="26" as="geometry" />
        </mxCell>
        <mxCell id="kZ2FG0ebcxlFSq9pCnh2-29" value="CoustomerManagemant" style="swimlane;fontStyle=1;align=center;verticalAlign=top;childLayout=stackLayout;horizontal=1;startSize=26;horizontalStack=0;resizeParent=1;resizeParentMax=0;resizeLast=0;collapsible=1;marginBottom=0;" vertex="1" parent="kZ2FG0ebcxlFSq9pCnh2-1">
          <mxGeometry x="650" y="254" width="160" height="86" as="geometry" />
        </mxCell>
        <mxCell id="kZ2FG0ebcxlFSq9pCnh2-30" value="+ field: type" style="text;strokeColor=none;fillColor=none;align=left;verticalAlign=top;spacingLeft=4;spacingRight=4;overflow=hidden;rotatable=0;points=[[0,0.5],[1,0.5]];portConstraint=eastwest;" vertex="1" parent="kZ2FG0ebcxlFSq9pCnh2-29">
          <mxGeometry y="26" width="160" height="26" as="geometry" />
        </mxCell>
        <mxCell id="kZ2FG0ebcxlFSq9pCnh2-31" value="" style="line;strokeWidth=1;fillColor=none;align=left;verticalAlign=middle;spacingTop=-1;spacingLeft=3;spacingRight=3;rotatable=0;labelPosition=right;points=[];portConstraint=eastwest;" vertex="1" parent="kZ2FG0ebcxlFSq9pCnh2-29">
          <mxGeometry y="52" width="160" height="8" as="geometry" />
        </mxCell>
        <mxCell id="kZ2FG0ebcxlFSq9pCnh2-32" value="+ method(type): type" style="text;strokeColor=none;fillColor=none;align=left;verticalAlign=top;spacingLeft=4;spacingRight=4;overflow=hidden;rotatable=0;points=[[0,0.5],[1,0.5]];portConstraint=eastwest;" vertex="1" parent="kZ2FG0ebcxlFSq9pCnh2-29">
          <mxGeometry y="60" width="160" height="26" as="geometry" />
        </mxCell>
        <mxCell id="kZ2FG0ebcxlFSq9pCnh2-39" value="«interface»&lt;br&gt;&lt;b&gt;IGaterPlugin[ver1.1]&lt;/b&gt;" style="html=1;" vertex="1" parent="kZ2FG0ebcxlFSq9pCnh2-1">
          <mxGeometry x="460" y="129" width="140" height="50" as="geometry" />
        </mxCell>
        <mxCell id="kZ2FG0ebcxlFSq9pCnh2-42" value="" style="endArrow=diamondThin;endFill=1;endSize=24;html=1;exitX=0.5;exitY=0;exitDx=0;exitDy=0;edgeStyle=orthogonalEdgeStyle;entryX=1;entryY=0.5;entryDx=0;entryDy=0;" edge="1" parent="kZ2FG0ebcxlFSq9pCnh2-1" source="kZ2FG0ebcxlFSq9pCnh2-35" target="kZ2FG0ebcxlFSq9pCnh2-35">
          <mxGeometry width="160" relative="1" as="geometry">
            <mxPoint x="230" y="173" as="sourcePoint" />
            <mxPoint x="720" y="65" as="targetPoint" />
            <Array as="points">
              <mxPoint x="620" y="38" />
              <mxPoint x="720" y="38" />
              <mxPoint x="720" y="65" />
            </Array>
          </mxGeometry>
        </mxCell>
        <mxCell id="kZ2FG0ebcxlFSq9pCnh2-43" value="" style="endArrow=block;endSize=16;endFill=0;html=1;exitX=0;exitY=0.5;exitDx=0;exitDy=0;edgeStyle=orthogonalEdgeStyle;entryX=1;entryY=0.5;entryDx=0;entryDy=0;" edge="1" parent="kZ2FG0ebcxlFSq9pCnh2-1" source="kZ2FG0ebcxlFSq9pCnh2-35" target="kZ2FG0ebcxlFSq9pCnh2-2">
          <mxGeometry width="160" relative="1" as="geometry">
            <mxPoint x="465" y="100" as="sourcePoint" />
            <mxPoint x="510" y="65" as="targetPoint" />
          </mxGeometry>
        </mxCell>
        <mxCell id="kZ2FG0ebcxlFSq9pCnh2-44" value="" style="endArrow=block;endSize=16;endFill=0;html=1;exitX=0;exitY=0.5;exitDx=0;exitDy=0;edgeStyle=orthogonalEdgeStyle;entryX=0.5;entryY=0;entryDx=0;entryDy=0;" edge="1" parent="kZ2FG0ebcxlFSq9pCnh2-1" source="kZ2FG0ebcxlFSq9pCnh2-35" target="kZ2FG0ebcxlFSq9pCnh2-39">
          <mxGeometry width="160" relative="1" as="geometry">
            <mxPoint x="550" y="75" as="sourcePoint" />
            <mxPoint x="520" y="75" as="targetPoint" />
          </mxGeometry>
        </mxCell>
      </root>
    </mxGraphModel>
  </diagram>
</mxfile>
